<svg width="240" height="30" viewBox="0 0 240 30" fill="none" xmlns="http://www.w3.org/2000/svg">
<path d="M15.1875 12.5156H23.0938C23.1042 12.7969 23.1094 13.0469 23.1094 13.2656C23.1094 16.3177 22.1094 18.7604 20.1094 20.5938C18.1094 22.4271 15.4688 23.3438 12.1875 23.3438C8.26042 23.3438 5.33333 22.2292 3.40625 20C1.47917 17.7604 0.515625 15.1146 0.515625 12.0625C0.515625 8.86458 1.5 6.20833 3.46875 4.09375C5.4375 1.97917 8.10938 0.921875 11.4844 0.921875C14.5156 0.921875 17.0573 1.84375 19.1094 3.6875V1.26562H21.875V8.40625H19.1094C18.5885 7.20833 17.6615 6.14583 16.3281 5.21875C15.0052 4.28125 13.4896 3.8125 11.7812 3.8125C9.40625 3.8125 7.53125 4.61458 6.15625 6.21875C4.78125 7.82292 4.09375 9.75521 4.09375 12.0156C4.09375 14.6094 4.875 16.6667 6.4375 18.1875C8.01042 19.7083 9.90104 20.4688 12.1094 20.4688C13.8385 20.4688 15.3802 19.9896 16.7344 19.0312C18.0885 18.0625 18.8802 16.7969 19.1094 15.2344H15.1875V12.5156ZM32.375 22.7344L27.4062 10.5156H24.8906V7.875H32.375V10.5156H30.5625L33.8281 18.8906L37.0312 10.5156H35.0312V7.875H42.3594V10.5156H40.1094L32.625 29.7812H27.6094V27.1875H30.5625L32.375 22.7344ZM46.2031 20.3594V10.5156H43.6875V7.875H49.1719V9.78125C50.9635 8.35417 52.7188 7.64062 54.4375 7.64062C56.1667 7.64062 57.3594 8.42708 58.0156 10C59.9844 8.42708 61.8177 7.64062 63.5156 7.64062C64.4948 7.64062 65.2969 7.85938 65.9219 8.29688C66.5573 8.72396 66.9844 9.27083 67.2031 9.9375C67.4219 10.5938 67.5312 11.5677 67.5312 12.8594V20.3594H70.1719V23H64.5625V13.3906C64.5625 12.5156 64.5208 11.901 64.4375 11.5469C64.3646 11.1823 64.1667 10.8854 63.8438 10.6562C63.5312 10.4167 63.151 10.2969 62.7031 10.2969C61.4323 10.2969 59.9896 10.9479 58.375 12.25V20.3594H60.9688V23H55.4062V13.1094C55.4062 12.1198 55.2604 11.4062 54.9688 10.9688C54.6875 10.5208 54.2031 10.2969 53.5156 10.2969C52.3906 10.2969 50.9427 10.9479 49.1719 12.25V20.3594H51.8281V23H43.5V20.3594H46.2031ZM76.8281 7.875V9.70312C78.7344 8.32812 80.474 7.64062 82.0469 7.64062C83.026 7.64062 83.8333 7.875 84.4688 8.34375C85.1146 8.80208 85.5365 9.36979 85.7344 10.0469C85.9323 10.7135 86.0312 11.6927 86.0312 12.9844V20.3594H88.5781V23H83.0625V13.1094C83.0625 11.9635 82.8906 11.2188 82.5469 10.875C82.2031 10.5208 81.7812 10.3438 81.2812 10.3438C79.9688 10.3438 78.4844 10.9844 76.8281 12.2656V20.3594H79.4375V23H71.2031V20.3594H73.8594V10.5156H71.2031V7.875H76.8281ZM105.266 20.3594V23H100.078V21.1562C98.6406 22.5521 97.0365 23.25 95.2656 23.25C93.8906 23.25 92.6927 22.8021 91.6719 21.9062C90.6615 21.0104 90.1562 19.8646 90.1562 18.4688C90.1562 17.0625 90.6927 15.8958 91.7656 14.9688C92.849 14.0417 94.151 13.5781 95.6719 13.5781C97.0885 13.5781 98.4583 14.0052 99.7812 14.8594V13.3594C99.7812 12.5885 99.7083 11.9948 99.5625 11.5781C99.4167 11.1615 99.0729 10.7865 98.5312 10.4531C98 10.1198 97.3021 9.95312 96.4375 9.95312C94.9479 9.95312 93.8698 10.5469 93.2031 11.7344L90.3594 10.9844C91.6198 8.63021 93.7969 7.45312 96.8906 7.45312C98.026 7.45312 99.0052 7.60938 99.8281 7.92188C100.661 8.22396 101.281 8.61979 101.688 9.10938C102.094 9.58854 102.365 10.1094 102.5 10.6719C102.646 11.2344 102.719 12.1302 102.719 13.3594V20.3594H105.266ZM99.7812 17.375C98.5 16.375 97.2031 15.875 95.8906 15.875C95.0677 15.875 94.3802 16.1146 93.8281 16.5938C93.276 17.0729 93 17.6927 93 18.4531C93 19.1615 93.2396 19.7552 93.7188 20.2344C94.2083 20.7135 94.8698 20.9531 95.7031 20.9531C97.1406 20.9531 98.5 20.349 99.7812 19.1406V17.375ZM107 23V17.8125H109.656V18.3125C109.75 19.0208 110.13 19.6042 110.797 20.0625C111.474 20.5208 112.271 20.75 113.188 20.75C114.146 20.75 114.911 20.5833 115.484 20.25C116.057 19.9167 116.344 19.4531 116.344 18.8594C116.344 18.2865 116.104 17.8646 115.625 17.5938C115.156 17.3229 114.219 17.0729 112.812 16.8438C110.729 16.4896 109.24 15.9219 108.344 15.1406C107.458 14.349 107.016 13.3281 107.016 12.0781C107.016 10.8177 107.5 9.76562 108.469 8.92188C109.438 8.06771 110.714 7.64062 112.297 7.64062C113.724 7.64062 114.953 7.93229 115.984 8.51562V7.875H118.625V12.8906H115.984V11.9688C115.182 10.7292 114.016 10.1094 112.484 10.1094C111.703 10.1094 111.057 10.2812 110.547 10.625C110.047 10.9583 109.797 11.4062 109.797 11.9688C109.797 12.5417 110.026 12.9375 110.484 13.1562C110.953 13.3646 111.953 13.5885 113.484 13.8281C114.953 14.0573 116.062 14.3281 116.812 14.6406C117.562 14.9427 118.182 15.4531 118.672 16.1719C119.172 16.8802 119.422 17.7083 119.422 18.6562C119.422 20.0625 118.88 21.1823 117.797 22.0156C116.724 22.8385 115.328 23.25 113.609 23.25C111.995 23.25 110.677 22.8854 109.656 22.1562V23H107ZM121.312 10.5156V7.875H123.281V5.54688L126.25 2.82812V7.875H129.047V10.5156H126.25V17.8594C126.25 19.0365 126.312 19.7656 126.438 20.0469C126.573 20.3177 126.901 20.4531 127.422 20.4531C127.974 20.4531 128.516 20.349 129.047 20.1406V22.8438C128.286 23.1146 127.526 23.25 126.766 23.25C125.859 23.25 125.125 23.0521 124.562 22.6562C124 22.25 123.646 21.7448 123.5 21.1406C123.354 20.5365 123.281 19.4948 123.281 18.0156V10.5156H121.312ZM132.969 2.73438C132.969 2.25521 133.135 1.83854 133.469 1.48438C133.812 1.13021 134.245 0.953125 134.766 0.953125C135.255 0.953125 135.677 1.125 136.031 1.46875C136.385 1.8125 136.562 2.23438 136.562 2.73438C136.562 3.23438 136.385 3.66146 136.031 4.01562C135.677 4.35938 135.255 4.53125 134.766 4.53125C134.266 4.53125 133.839 4.35417 133.484 4C133.141 3.64583 132.969 3.22396 132.969 2.73438ZM133.391 20.3594V10.5156H131.031V7.875H136.359V20.3594H138.688V23H131.031V20.3594H133.391ZM154.812 7.875V13.5938H152.156C152.021 12.5 151.573 11.6615 150.812 11.0781C150.062 10.4948 149.188 10.2031 148.188 10.2031C146.854 10.2031 145.771 10.6771 144.938 11.625C144.104 12.5625 143.688 13.7969 143.688 15.3281C143.688 16.7552 144.083 18.0156 144.875 19.1094C145.667 20.1927 146.812 20.7344 148.312 20.7344C150.396 20.7344 151.906 19.7448 152.844 17.7656L155.297 18.9219C153.943 21.9323 151.573 23.4375 148.188 23.4375C145.792 23.4375 143.906 22.6198 142.531 20.9844C141.156 19.349 140.469 17.4635 140.469 15.3281C140.469 13.0469 141.219 11.1667 142.719 9.6875C144.219 8.19792 145.948 7.45312 147.906 7.45312C149.583 7.45312 151 7.94792 152.156 8.9375V7.875H154.812ZM157.344 23V17.8125H160V18.3125C160.094 19.0208 160.474 19.6042 161.141 20.0625C161.818 20.5208 162.615 20.75 163.531 20.75C164.49 20.75 165.255 20.5833 165.828 20.25C166.401 19.9167 166.688 19.4531 166.688 18.8594C166.688 18.2865 166.448 17.8646 165.969 17.5938C165.5 17.3229 164.562 17.0729 163.156 16.8438C161.073 16.4896 159.583 15.9219 158.688 15.1406C157.802 14.349 157.359 13.3281 157.359 12.0781C157.359 10.8177 157.844 9.76562 158.812 8.92188C159.781 8.06771 161.057 7.64062 162.641 7.64062C164.068 7.64062 165.297 7.93229 166.328 8.51562V7.875H168.969V12.8906H166.328V11.9688C165.526 10.7292 164.359 10.1094 162.828 10.1094C162.047 10.1094 161.401 10.2812 160.891 10.625C160.391 10.9583 160.141 11.4062 160.141 11.9688C160.141 12.5417 160.37 12.9375 160.828 13.1562C161.297 13.3646 162.297 13.5885 163.828 13.8281C165.297 14.0573 166.406 14.3281 167.156 14.6406C167.906 14.9427 168.526 15.4531 169.016 16.1719C169.516 16.8802 169.766 17.7083 169.766 18.6562C169.766 20.0625 169.224 21.1823 168.141 22.0156C167.068 22.8385 165.672 23.25 163.953 23.25C162.339 23.25 161.021 22.8854 160 22.1562V23H157.344ZM193.844 15.3594H186.031L184.359 20.2812H187V23H178.438V20.2812H181.062L187 3.71875H184.359V1.26562H195.469V3.71875H192.766L198.844 20.2812H201.281V23H192.766V20.2812H195.469L193.844 15.3594ZM193.031 12.8125L190.141 3.71875H189.844L186.844 12.8125H193.031ZM204.016 27.1406V10.5156H201.469V7.875H206.984V10.25C208.464 8.51042 210.255 7.64062 212.359 7.64062C214.484 7.64062 216.24 8.36979 217.625 9.82812C219.021 11.2865 219.719 13.1823 219.719 15.5156C219.719 17.9635 218.964 19.8958 217.453 21.3125C215.943 22.7292 214.224 23.4375 212.297 23.4375C210.297 23.4375 208.526 22.6667 206.984 21.125V27.1406H209.922V29.7812H201.25V27.1406H204.016ZM206.938 15.6562C206.938 16.4896 207.109 17.2865 207.453 18.0469C207.797 18.8073 208.344 19.4479 209.094 19.9688C209.844 20.4792 210.724 20.7344 211.734 20.7344C213.151 20.7344 214.318 20.2604 215.234 19.3125C216.161 18.3646 216.625 17.0625 216.625 15.4062C216.625 13.7917 216.141 12.5312 215.172 11.625C214.214 10.7188 213.12 10.2656 211.891 10.2656C210.578 10.2656 209.422 10.7604 208.422 11.75C207.432 12.7292 206.938 14.0312 206.938 15.6562ZM224.016 27.1406V10.5156H221.469V7.875H226.984V10.25C228.464 8.51042 230.255 7.64062 232.359 7.64062C234.484 7.64062 236.24 8.36979 237.625 9.82812C239.021 11.2865 239.719 13.1823 239.719 15.5156C239.719 17.9635 238.964 19.8958 237.453 21.3125C235.943 22.7292 234.224 23.4375 232.297 23.4375C230.297 23.4375 228.526 22.6667 226.984 21.125V27.1406H229.922V29.7812H221.25V27.1406H224.016ZM226.938 15.6562C226.938 16.4896 227.109 17.2865 227.453 18.0469C227.797 18.8073 228.344 19.4479 229.094 19.9688C229.844 20.4792 230.724 20.7344 231.734 20.7344C233.151 20.7344 234.318 20.2604 235.234 19.3125C236.161 18.3646 236.625 17.0625 236.625 15.4062C236.625 13.7917 236.141 12.5312 235.172 11.625C234.214 10.7188 233.12 10.2656 231.891 10.2656C230.578 10.2656 229.422 10.7604 228.422 11.75C227.432 12.7292 226.938 14.0312 226.938 15.6562Z" fill="#1D1617"/>
</svg>
