<?xml version="1.0" encoding="utf-8"?>
<svg viewBox="274.793 59.445 56.355 80.149" xmlns="http://www.w3.org/2000/svg">
  <path d="M 303.24 59.445 C 289.756 59.445 274.793 69.242 274.793 88.056 C 274.793 106.87 298.388 139.594 303.24 139.594 C 308.095 139.594 331.148 107.454 331.148 87.35 C 331.148 60.425 303.24 59.445 303.24 59.445 Z M 302.969 107.8 C 292.198 107.8 283.468 99.069 283.468 88.298 C 283.468 77.527 292.199 68.795 302.969 68.795 C 313.74 68.795 322.471 77.526 322.471 88.298 C 322.471 99.07 313.74 107.8 302.969 107.8 Z" style="fill: rgb(255, 255, 255);" transform="matrix(0.9999999999999999, 0, 0, 0.9999999999999999, -7.105427357601002e-15, 0)"/>
  <path d="M 296.142 81.162 L 294.643 81.162 C 293.816 81.162 293.143 81.835 293.143 82.662 L 293.143 94.378 C 293.143 95.205 293.816 95.878 294.643 95.878 L 296.142 95.878 C 296.969 95.878 297.642 95.205 297.642 94.378 L 297.642 82.662 C 297.642 81.835 296.969 81.162 296.142 81.162 Z" style="fill: rgb(255, 255, 255);" transform="matrix(0.9999999999999999, 0, 0, 0.9999999999999999, -7.105427357601002e-15, 0)"/>
  <path d="M 290.831 82.982 L 290.729 82.982 C 289.902 82.982 289.229 83.655 289.229 84.482 L 289.229 86.052 C 289.229 86.205 289.184 86.35 289.105 86.45 C 289.081 86.481 289.018 86.552 288.946 86.552 C 288.239 86.552 287.665 87.225 287.665 88.052 L 287.665 88.991 C 287.665 89.818 288.24 90.491 288.946 90.491 C 289.058 90.491 289.228 90.691 289.228 90.991 L 289.228 92.56 C 289.228 93.387 289.901 94.06 290.728 94.06 L 290.828 94.06 C 291.655 94.06 292.328 93.387 292.328 92.56 L 292.328 84.483 C 292.328 83.654 291.655 82.982 290.831 82.982 Z" style="fill: rgb(255, 255, 255);" transform="matrix(0.9999999999999999, 0, 0, 0.9999999999999999, -7.105427357601002e-15, 0)"/>
  <path d="M 311.299 81.162 L 309.8 81.162 C 308.973 81.162 308.3 81.835 308.3 82.662 L 308.3 94.378 C 308.3 95.205 308.973 95.878 309.8 95.878 L 311.299 95.878 C 312.126 95.878 312.799 95.205 312.799 94.378 L 312.799 82.662 C 312.799 81.835 312.126 81.162 311.299 81.162 Z" style="fill: rgb(255, 255, 255);" transform="matrix(0.9999999999999999, 0, 0, 0.9999999999999999, -7.105427357601002e-15, 0)"/>
  <path d="M 317.94 87.037 C 317.699 86.728 317.354 86.551 316.994 86.551 C 316.882 86.551 316.713 86.352 316.713 86.051 L 316.713 84.481 C 316.713 83.654 316.041 82.981 315.114 82.981 L 315.113 82.981 C 314.286 82.981 313.613 83.654 313.613 84.481 L 313.613 92.558 C 313.613 93.385 314.286 94.058 315.113 94.058 L 315.213 94.058 C 316.04 94.058 316.713 93.385 316.713 92.558 L 316.713 90.989 C 316.713 90.688 316.883 90.489 316.994 90.489 C 317.701 90.489 318.276 89.816 318.276 88.989 L 318.276 88.05 C 318.276 87.674 318.157 87.314 317.94 87.037 Z" style="fill: rgb(255, 255, 255);" transform="matrix(0.9999999999999999, 0, 0, 0.9999999999999999, -7.105427357601002e-15, 0)"/>
  <path d="M 305.959 86.481 L 299.982 86.481 C 299.155 86.481 298.482 87.154 298.482 87.981 L 298.482 89.06 C 298.482 89.887 299.155 90.56 299.982 90.56 L 305.959 90.56 C 306.786 90.56 307.459 89.887 307.459 89.06 L 307.459 87.981 C 307.459 87.154 306.786 86.481 305.959 86.481 Z" style="fill: rgb(255, 255, 255);" transform="matrix(0.9999999999999999, 0, 0, 0.9999999999999999, -7.105427357601002e-15, 0)"/>
</svg>