<svg width="12" height="17" viewBox="0 0 12 17" fill="none" xmlns="http://www.w3.org/2000/svg">
<mask id="mask0_218_146" style="mask-type:luminance" maskUnits="userSpaceOnUse" x="0" y="10" width="12" height="7">
<path fill-rule="evenodd" clip-rule="evenodd" d="M0 10.205H11.8799V16.0204H0V10.205Z" fill="white"/>
</mask>
<g mask="url(#mask0_218_146)">
<path fill-rule="evenodd" clip-rule="evenodd" d="M5.94075 11.3879C2.745 11.3879 1.125 11.9652 1.125 13.1048C1.125 14.2546 2.745 14.8374 5.94075 14.8374C9.13575 14.8374 10.755 14.2601 10.755 13.1205C10.755 11.9707 9.13575 11.3879 5.94075 11.3879ZM5.94075 16.0204C4.4715 16.0204 0 16.0204 0 13.1048C0 10.5054 3.39075 10.205 5.94075 10.205C7.41 10.205 11.88 10.205 11.88 13.1205C11.88 15.7199 8.49 16.0204 5.94075 16.0204Z" fill="#7B6F72"/>
</g>
<mask id="mask1_218_146" style="mask-type:luminance" maskUnits="userSpaceOnUse" x="1" y="0" width="9" height="9">
<path fill-rule="evenodd" clip-rule="evenodd" d="M1.95752 0.350159H9.92254V8.72437H1.95752V0.350159Z" fill="white"/>
</mask>
<g mask="url(#mask1_218_146)">
<path fill-rule="evenodd" clip-rule="evenodd" d="M5.94083 1.47598C4.33508 1.47598 3.02858 2.849 3.02858 4.53747C3.02333 6.22042 4.32008 7.59264 5.91908 7.59895L5.94083 8.16204V7.59895C7.54583 7.59895 8.85158 6.22515 8.85158 4.53747C8.85158 2.849 7.54583 1.47598 5.94083 1.47598ZM5.94079 8.72438H5.91679C3.72529 8.71729 1.95004 6.83797 1.95754 4.53515C1.95754 2.22839 3.74404 0.349854 5.94079 0.349854C8.13679 0.349854 9.92254 2.22839 9.92254 4.53751C9.92254 6.84664 8.13679 8.72438 5.94079 8.72438Z" fill="#7B6F72"/>
</g>
</svg>
